<svg height="150" viewBox="0 90 190 590" width="190" style="margin-top: 2%; margin-left:2%" xmlns="http://www.w3.org/2000/svg"><g id="BULINE"><circle cx="256" cy="256" fill="#dc7da7" r="256"/></g><g id="Icons"><path d="m102.08 195.65c-5.55-1.37-11.67 4-14 12.11-5-6.47-12.43-9.14-17-5.95s-4.7 11.11-.37 18.07a23.54 23.54 0 0 0 -2.43-.71c-8.53-1.93-16.49 1.16-17.79 6.89s4.58 11.94 13.1 13.88 16.49-1.15 17.79-6.88a7.83 7.83 0 0 0 -.38-4.53c3 1 5.9.85 8.15-.71a7.67 7.67 0 0 0 2.44-2.88 7.55 7.55 0 0 0 2.87 1.44c5.71 1.41 12-4.32 14.14-12.8s-.81-16.51-6.52-17.93z" fill="#75c07d"/><path d="m62.36 229c-1 4.2 1.93 8.66 6.9 11.51a22.86 22.86 0 0 1 -5.67-.56c-8.52-1.94-14.38-8.15-13.08-13.89s9.26-8.82 17.79-6.89c.84.2 1.64.44 2.43.71-4.33-7-4.23-14.87.37-18.07 3.57-2.47 8.81-1.42 13.32 2.16a6.91 6.91 0 0 0 -1.47.78c-4.6 3.2-4.69 11.11-.37 18.07-.79-.27-1.59-.51-2.43-.71-8.52-1.93-16.49 1.15-17.79 6.89z" fill="#64a268"/><path d="m69.27 257.73c5.18 15 24.71 32.2 39.67 27s19.67-30.73 14.5-45.73a28.66 28.66 0 1 0 -54.17 18.73z" fill="#d93a46"/><path d="m107.54 284.9c-14.85 4.22-33.72-12.63-38.79-27.3a28.64 28.64 0 0 1 44.09-32.41 29.09 29.09 0 0 0 -5.07 1.25 28.65 28.65 0 0 0 -17.72 36.44c2.74 7.93 9.5 16.49 17.49 22.02z" fill="#a1323f"/><g fill="#fff"><ellipse cx="114.33" cy="236.57" rx="3.13" ry="4.74" transform="matrix(.883 -.469 .469 .883 -97.64 81.32)"/><ellipse cx="75.88" cy="255.99" rx="3.13" ry="4.74" transform="matrix(.968 -.253 .253 .968 -62.2 27.47)"/><ellipse cx="87.62" cy="248.96" rx="3.13" ry="4.74" transform="matrix(.968 -.253 .253 .968 -60.04 30.2)"/><ellipse cx="103.48" cy="241.89" rx="3.13" ry="4.74" transform="matrix(.863 -.506 .506 .863 -108.11 85.53)"/><ellipse cx="115.43" cy="253.08" rx="3.13" ry="4.74" transform="matrix(.883 -.469 .469 .883 -105.26 83.77)"/><ellipse cx="86.42" cy="268.57" rx="3.13" ry="4.74" transform="matrix(.968 -.253 .253 .968 -65.04 30.54)"/><ellipse cx="100.3" cy="260.16" rx="3.13" ry="4.74" transform="matrix(.923 -.384 .384 .923 -92.32 58.56)"/><ellipse cx="83.09" cy="234.7" rx="3.13" ry="4.74" transform="matrix(.994 -.105 .105 .994 -24.16 10.01)"/><ellipse cx="94.48" cy="228.8" rx="3.13" ry="4.74" transform="matrix(.81 -.587 .587 .81 -116.24 98.91)"/><ellipse cx="99.82" cy="278.71" rx="3.13" ry="4.74" transform="matrix(.52 -.854 .854 .52 -190.17 219.18)"/><ellipse cx="115.21" cy="270.31" rx="3.13" ry="4.74" transform="matrix(.992 -.13 .13 .992 -34.08 17.22)"/></g><path d="m487.22 366a256.06 256.06 0 0 1 -35.77 55.33l-.08.1c-.68.81-1.37 1.61-2.07 2.41a257 257 0 0 1 -34 32.59l-.81.64a255.73 255.73 0 0 1 -316.92 0l-.81-.64a257 257 0 0 1 -34-32.59q-5.84-6.7-11.19-13.81a254.56 254.56 0 0 1 -26.72-44z" fill="#72392f"/><path d="m350 145.21c2.53-19.49-9.65-49.48-29.14-52s-38.93 23.35-41.46 42.85a35.6 35.6 0 0 0 70.6 9.16z" fill="#d93a46"/><path d="m340.48 147.22c1.89-14.53-7.19-36.89-21.72-38.77s-29 17.41-30.91 31.94a26.54 26.54 0 1 0 52.63 6.83z" fill="#a1323f"/><path d="m391 191.91c14.37-13.42 24.1-44.29 10.68-58.66s-44.88-6.8-59.25 6.61a35.6 35.6 0 0 0 48.57 52z" fill="#d93a46"/><path d="m382.4 187.42c10.72-10 18-33 8-43.73s-33.46-5.06-44.18 4.94a26.53 26.53 0 1 0 36.21 38.79z" fill="#a1323f"/><path d="m434.66 241.23c17.58-8.81 35.62-35.68 26.8-53.25s-41.13-19.19-58.71-10.38a35.59 35.59 0 0 0 31.91 63.63z" fill="#d93a46"/><path d="m427.7 234.51c13.1-6.57 26.55-26.6 20-39.7s-30.7-14.31-43.79-7.74a26.54 26.54 0 1 0 23.79 47.44z" fill="#a1323f"/><path d="m430.59 302.09c19.5-2.5 45.41-21.9 42.9-41.4s-32.48-31.71-52-29.2a35.59 35.59 0 0 0 9.08 70.6z" fill="#d93a46"/><path d="m426.24 293.45c14.53-1.87 33.85-16.33 32-30.87s-24.24-23.64-38.77-21.77a26.54 26.54 0 0 0 6.77 52.64z" fill="#a1323f"/><circle cx="347.11" cy="162.06" fill="#d4e85e" r="36"/><circle cx="347.11" cy="162.06" fill="#f3ff9b" r="27.78"/><circle cx="347.11" cy="146.49" fill="#eaac2e" r="4.35"/><circle cx="347.11" cy="178.43" fill="#eaac2e" r="4.35"/><circle cx="363.07" cy="162.34" fill="#eaac2e" r="4.35"/><circle cx="331.14" cy="162.34" fill="#eaac2e" r="4.35"/><circle cx="399.58" cy="198.06" fill="#d4e85e" r="36"/><circle cx="399.58" cy="198.06" fill="#f3ff9b" r="27.78"/><circle cx="399.58" cy="182.49" fill="#eaac2e" r="4.35"/><circle cx="399.58" cy="214.43" fill="#eaac2e" r="4.35"/><circle cx="415.54" cy="198.34" fill="#eaac2e" r="4.35"/><circle cx="383.61" cy="198.34" fill="#eaac2e" r="4.35"/><circle cx="415.26" cy="250.43" fill="#d4e85e" r="36"/><circle cx="415.26" cy="250.43" fill="#f3ff9b" r="27.78"/><circle cx="415.26" cy="234.87" fill="#eaac2e" r="4.35"/><circle cx="415.26" cy="266.8" fill="#eaac2e" r="4.35"/><circle cx="431.22" cy="250.71" fill="#eaac2e" r="4.35"/><circle cx="399.29" cy="250.71" fill="#eaac2e" r="4.35"/><circle cx="74.02" cy="281.77" fill="#313d74" r="14.91"/><path d="m79.08 295.81a14.92 14.92 0 1 1 0-28.07 14.92 14.92 0 0 0 0 28.07z" fill="#2c375f"/><circle cx="79.08" cy="278.58" fill="#40518d" r="5.06"/><path d="m67.63 295.77h348.85s17.56-118.55-111.72-153a51.49 51.49 0 0 0 -44.12 8.52z" fill="#72392f"/><path d="m67.63 295.77s231.29-100.25 320.63-111.95a20.71 20.71 0 0 1 19.37 8.29c13.27 18.1 36.61 60 8.85 103.66z" fill="#d6af7c"/><path d="m353.6 163.3-60.6 45.39-116.37 87.08h-109l193-144.46a51.51 51.51 0 0 1 44.13-8.51c19.4 5.2 35.5 12.2 48.84 20.5z" fill="#5c2f2a"/><path d="m293 208.69-116.37 87.08h-109c1.76-.77 124.6-53.94 225.37-87.08z" fill="#be9c73"/><circle cx="384.58" cy="224.77" fill="#be9c73" r="15"/><circle cx="315.58" cy="266.77" fill="#be9c73" r="15"/><circle cx="262.51" cy="270.38" fill="#be9c73" r="10.6"/><circle cx="384.58" cy="277.38" fill="#be9c73" r="10.6"/><path d="m238.43 186.85a22.39 22.39 0 0 0 -42.81-9.2 22.39 22.39 0 0 0 -35.06 26.9 18.16 18.16 0 0 0 -15.72 23.71 18.17 18.17 0 1 0 19.64 18.74 22.39 22.39 0 0 0 38.13-13.88 24.21 24.21 0 0 0 30.51-31.81 22.33 22.33 0 0 0 5.31-14.46z" fill="#fff"/><path d="m179.31 194a22.3 22.3 0 0 0 2.69 10.55 18.17 18.17 0 0 0 -16.6 18.1 17.94 17.94 0 0 0 .89 5.6 18.17 18.17 0 0 0 -9.2 32.8 18.17 18.17 0 1 1 -12.2-32.8 18.15 18.15 0 0 1 15.72-23.7 22.39 22.39 0 0 1 30.39-30.25 22.4 22.4 0 0 0 -11.69 19.7z" fill="#d6d6d6"/><path d="m319.51 147.45h-.49a22.4 22.4 0 0 0 -41.3-8 18.17 18.17 0 1 0 -21.6 29.19 22.4 22.4 0 1 0 37.55 24.36 18.07 18.07 0 0 0 19.74-10.31 18.17 18.17 0 1 0 6.1-35.28z" fill="#fff"/><path d="m312.41 135.47a22.29 22.29 0 0 0 -3.1 4 18.16 18.16 0 1 0 -21.6 29.18 22.37 22.37 0 0 0 2.29 28.35 22.39 22.39 0 0 1 -34.47-28.35 18.16 18.16 0 1 1 21.6-29.18 22.39 22.39 0 0 1 35.27-4z" fill="#d6d6d6"/><circle cx="149.12" cy="275.12" fill="#313d74" r="21.56"/><path d="m156.43 295.42a21.57 21.57 0 1 1 0-40.59 21.58 21.58 0 0 0 0 40.59z" fill="#2c375f"/><circle cx="156.43" cy="270.5" fill="#40518d" r="7.32"/><circle cx="419.61" cy="281.77" fill="#313d74" r="14.91"/><path d="m424.67 295.81a14.92 14.92 0 1 1 0-28.07 14.92 14.92 0 0 0 0 28.07z" fill="#2c375f"/><circle cx="424.67" cy="278.58" fill="#40518d" r="5.06"/><circle cx="277.65" cy="281.77" fill="#313d74" r="14.91"/><path d="m282.71 295.81a14.92 14.92 0 1 1 0-28.07 14.92 14.92 0 0 0 0 28.07z" fill="#2c375f"/><circle cx="282.71" cy="278.58" fill="#40518d" r="5.06"/><path d="m428 343h-352.2a46.62 46.62 0 0 1 -46.62-46.62l-.67-.66h445.49l.66.66a46.61 46.61 0 0 1 -46.66 46.62z" fill="#fff"/><path d="m187.79 343h-112.66a46.62 46.62 0 0 1 -46.62-46.62h112.66a46.62 46.62 0 0 0 46.62 46.62z" fill="#d3d2d2"/><path d="m103.84 343h296.16a0 0 0 0 1 0 0 30.43 30.43 0 0 1 -30.43 30.43h-235.3a30.43 30.43 0 0 1 -30.43-30.43 0 0 0 0 1 0 0z" fill="#b9b9b9"/><path d="m380.17 253.61c-.67-5.33-7.47-8.89-15.34-8.15 4-6.57 3.82-14-.54-17s-11.34-.36-16 5.78a21.7 21.7 0 0 0 -.21-2.37c-1.18-8.13-6.58-14.08-12.06-13.28s-8.94 8-7.75 16.18 6.58 14.08 12 13.28a7.34 7.34 0 0 0 3.85-1.87c.13 3 1.25 5.47 3.38 6.91a7.06 7.06 0 0 0 3.34 1.17 7.13 7.13 0 0 0 -.28 3c.69 5.49 7.86 9.11 16 8.08s14.29-6.24 13.61-11.73z" fill="#76c27d"/><path d="m314.6 245.81c-11.38 9.6-19.9 32.57-10.31 43.95s33.71 6.85 45.06-2.76a26.95 26.95 0 1 0 -34.75-41.2z" fill="#db3a46"/><path d="m303.69 288.57c-8.72-11.59-.32-33.86 10.85-43.27a26.94 26.94 0 0 1 43.35 27.7 27 27 0 0 0 -40.79-7.24c-6.03 5.11-11.25 13.93-13.41 22.81z" fill="#a3323f"/><ellipse cx="339.28" cy="275.81" fill="#fff" rx="5.82" ry="3.84" transform="matrix(.655 -.755 .755 .655 -91.38 351.37)"/><ellipse cx="321.61" cy="258.32" fill="#fff" rx="5.82" ry="3.84" transform="matrix(.332 -.943 .943 .332 -28.8 475.98)"/><ellipse cx="345.04" cy="256.75" fill="#fff" rx="5.82" ry="3.84" transform="matrix(.89 -.455 .455 .89 -79.07 185.32)"/><ellipse cx="319.64" cy="283.13" fill="#fff" rx="5.82" ry="3.84" transform="matrix(.986 -.169 .169 .986 -43.32 58.2)"/></g></svg>